<?xml version="1.0" encoding="UTF-8" standalone="no"?>
<svg
   xmlns:dc="http://purl.org/dc/elements/1.1/"
   xmlns:cc="http://creativecommons.org/ns#"
   xmlns:rdf="http://www.w3.org/1999/02/22-rdf-syntax-ns#"
   xmlns:svg="http://www.w3.org/2000/svg"
   xmlns="http://www.w3.org/2000/svg"
   xmlns:sodipodi="http://sodipodi.sourceforge.net/DTD/sodipodi-0.dtd"
   xmlns:inkscape="http://www.inkscape.org/namespaces/inkscape"
   width="24pt"
   height="24pt"
   viewBox="0 0 24 24"
   version="1.1"
   id="svg8"
   inkscape:version="1.0.2 (e86c870879, 2021-01-15)"
   sodipodi:docname="texpaste_icon.svg"
   inkscape:export-filename="C:\Users\Jonas\seadrive\Jonas Mu\Meine Bibliotheken\100 Projekte\Design\texpaste_icon.png"
   inkscape:export-xdpi="1536"
   inkscape:export-ydpi="1536">
  <defs
     id="defs2" />
  <sodipodi:namedview
     id="base"
     pagecolor="#ffffff"
     bordercolor="#666666"
     borderopacity="1.0"
     inkscape:pageopacity="0.0"
     inkscape:pageshadow="2"
     inkscape:zoom="11.313708"
     inkscape:cx="13.385584"
     inkscape:cy="17.918981"
     inkscape:document-units="pt"
     inkscape:current-layer="g2739"
     inkscape:document-rotation="0"
     showgrid="false"
     inkscape:snap-page="true"
     inkscape:snap-object-midpoints="true"
     inkscape:snap-intersection-paths="true"
     inkscape:object-paths="true"
     inkscape:snap-midpoints="true"
     units="pt"
     inkscape:snap-smooth-nodes="true" />
  <metadata
     id="metadata5">
    <rdf:RDF>
      <cc:Work
         rdf:about="">
        <dc:format>image/svg+xml</dc:format>
        <dc:type
           rdf:resource="http://purl.org/dc/dcmitype/StillImage" />
        <dc:title></dc:title>
      </cc:Work>
    </rdf:RDF>
  </metadata>
  <g
     inkscape:label="Layer 1"
     inkscape:groupmode="layer"
     id="layer1">
    <g
       id="g2739"
       transform="translate(3,1.125)">
      <path
         id="path2741"
         style="display:inline;fill:#f7f7f7;fill-opacity:1;stroke:none;stroke-width:0.5;stroke-linecap:butt;stroke-linejoin:miter;stroke-miterlimit:4;stroke-dasharray:none;stroke-opacity:1"
         d="m 1.4999999,3.2504886 h 3.499511 V 6.2504883 H 13.000488 V 3.2504886 H 16.5 V 20.250001 H 1.4999999 Z"
         sodipodi:nodetypes="ccccccccc" />
      <path
         style="display:inline;fill:#191a2f;fill-opacity:1;stroke:#191a2f;stroke-width:0.7;stroke-linecap:butt;stroke-linejoin:round;stroke-miterlimit:4;stroke-dasharray:none;stroke-opacity:1"
         d="m 10.749439,11.579417 c 0.232662,0 0.331096,0 0.331096,-0.232662 0,-0.11633 -0.09843,-0.11633 -0.313199,-0.11633 H 9.8098421 C 10.033555,10.013422 10.203578,9.172259 10.293063,8.79642 c 0.07159,-0.286353 0.322148,-0.554809 0.626399,-0.554809 0.250558,0 0.501118,0.107382 0.617449,0.214765 -0.456376,0.04474 -0.599553,0.384787 -0.599553,0.590604 0,0.232662 0.178971,0.375838 0.402685,0.375838 0.232662,0 0.590603,-0.205816 0.590603,-0.653243 C 11.930646,8.277405 11.429528,8 10.910513,8 10.400446,8 9.9082761,8.384787 9.6666651,8.841163 9.4608491,9.252796 9.3355691,9.682326 9.0671131,11.230425 h -0.796421 c -0.223714,0 -0.340045,0 -0.340045,0.214765 0,0.134227 0.07159,0.134227 0.304251,0.134227 h 0.760626 c -0.214765,1.100672 -0.697986,3.767338 -0.966442,5.038031 -0.205817,1.029082 -0.384787,1.888143 -0.9753912,1.888143 -0.03579,0 -0.375838,0 -0.590603,-0.223714 0.599552,-0.04474 0.599552,-0.563758 0.599552,-0.581656 0,-0.232661 -0.170022,-0.375838 -0.393736,-0.375838 -0.241611,0 -0.599552,0.205816 -0.599552,0.653243 0,0.510067 0.527964,0.769576 0.984339,0.769576 1.2080522,0 1.7091712,-2.165548 1.8344512,-2.756152 0.214765,-0.912752 0.79642,-4.062639 0.850112,-4.411633 z m 0,0"
         id="path2083" />
      <path
         id="path2727"
         style="display:inline;fill:#5c482a;fill-opacity:1;stroke:none;stroke-width:0.5;stroke-linecap:butt;stroke-linejoin:miter;stroke-miterlimit:4;stroke-dasharray:none;stroke-opacity:1"
         d="M 9,0 C 7.8267967,-7.5e-8 6.761107,0.68389041 6.2724609,1.7504883 H 1.5 c -0.831,0 -1.5,0.669 -1.5,1.5 V 20.25 c 0,0.831 0.669,1.5 1.5,1.5 h 15 c 0.831,0 1.5,-0.669 1.5,-1.5 V 3.2504883 c 0,-0.831 -0.669,-1.4999836 -1.5,-1.5 H 11.727539 C 11.238843,0.6840116 10.173114,2.25e-7 9,0 Z M 8.99121,1.7504883 A 1.25,1.25 0 0 1 9,1.7504883 1.25,1.25 0 0 1 10.249512,3 1.25,1.25 0 0 1 9,4.2495117 1.25,1.25 0 0 1 7.750488,3 1.25,1.25 0 0 1 8.9912107,1.7504883 Z m -7.4912108,1.5 h 3.4995117 v 3 h 8.0009771 v -3 H 16.5 V 20.25 h -15 z" />
      <path
         id="path2754"
         style="fill:#98a2a9;fill-opacity:1;stroke:none;stroke-width:0.933333;stroke-linecap:butt;stroke-linejoin:round;stroke-miterlimit:4;stroke-dasharray:none;stroke-opacity:1"
         d="M 15.939453,1.5 A 4,4 0 0 0 12,5.5 a 4,4 0 0 0 4,4 4,4 0 0 0 4,-4 4,4 0 0 0 -4,-4 4,4 0 0 0 -0.06055,0 z m 0.04883,2.3339844 a 1.6666667,1.6666667 0 0 1 0.01172,0 A 1.6666667,1.6666667 0 0 1 17.666016,5.5 1.6666667,1.6666667 0 0 1 16,7.1660156 1.6666667,1.6666667 0 0 1 14.333984,5.5 1.6666667,1.6666667 0 0 1 15.988281,3.8339844 Z"
         transform="matrix(0.75,0,0,0.75,-3,-1.125)" />
      <path
         id="rect2756"
         style="fill:#98a2a9;fill-opacity:1;stroke:none;stroke-width:0.7;stroke-linecap:butt;stroke-linejoin:round;stroke-miterlimit:4;stroke-dasharray:none;stroke-opacity:1"
         d="M 4.9995108,3.2504883 H 6.9997551 L 9.0468744,4.9145508 11.000244,3.2504883 h 2.000244 v 3 H 4.9995108 Z"
         sodipodi:nodetypes="cccccccc" />
    </g>
  </g>
</svg>
