<svg
   xmlns="http://www.w3.org/2000/svg"
   width="155.80499mm"
   height="29mm"
   viewBox="0 0 155.80499 29"
   version="1.1">
  <g>
    <path
       style="display:inline;fill:#f7f7f7;fill-opacity:1;stroke:none;stroke-width:0.176389;stroke-linecap:butt;stroke-linejoin:miter;stroke-miterlimit:4;stroke-dasharray:none;stroke-opacity:1"
       d="M 3.3793048,4.9890222 H 6.5972333 V 7.7476318 H 13.954425 V 4.9890222 h 3.217929 V 20.620696 H 3.3793048 Z" />
    <path
       style="display:inline;fill:#191a2f;fill-opacity:1;stroke:#191a2f;stroke-width:0.644;stroke-linecap:butt;stroke-linejoin:round;stroke-miterlimit:4;stroke-dasharray:none;stroke-opacity:1"
       d="m 11.884503,12.647777 c 0.213941,0 0.304454,0 0.304454,-0.213941 0,-0.10697 -0.09051,-0.10697 -0.287997,-0.10697 h -0.880451 c 0.205712,-1.119079 0.362054,-1.892559 0.444339,-2.238157 0.06583,-0.2633119 0.296227,-0.510167 0.575997,-0.510167 0.230397,0 0.460796,0.098742 0.567767,0.1974842 -0.419655,0.04114 -0.551311,0.3538258 -0.551311,0.5430818 0,0.213941 0.16457,0.345597 0.370284,0.345597 0.213941,0 0.543081,-0.189255 0.543081,-0.600681 0,-0.4525681 -0.460797,-0.7076522 -0.93805,-0.7076522 -0.469025,0 -0.921593,0.3538257 -1.143764,0.7734802 -0.189255,0.378512 -0.304455,0.77348 -0.55131,2.197014 H 9.6052041 c -0.2057132,0 -0.3126838,0 -0.3126838,0.197484 0,0.123427 0.06583,0.123427 0.2797699,0.123427 h 0.6994238 c -0.197485,1.012108 -0.641824,3.464205 -0.8886791,4.632654 -0.1892563,0.946278 -0.3538258,1.736216 -0.896908,1.736216 -0.03291,0 -0.3455967,0 -0.543081,-0.205713 0.55131,-0.04114 0.55131,-0.518396 0.55131,-0.534854 0,-0.21394 -0.1563415,-0.345597 -0.3620547,-0.345597 -0.2221701,0 -0.55131,0.189256 -0.55131,0.600681 0,0.469025 0.4854822,0.707653 0.9051357,0.707653 1.1108483,0 1.5716451,-1.9913 1.6868451,-2.534382 0.197484,-0.839309 0.732337,-3.735746 0.781709,-4.056658 z m 0,0" />
    <path
       style="display:inline;fill:#5c482a;fill-opacity:1;stroke:none;stroke-width:0.176389;stroke-linecap:butt;stroke-linejoin:miter;stroke-miterlimit:4;stroke-dasharray:none;stroke-opacity:1"
       d="M 10.275829,2.000079 C 9.197026,2.0000789 8.2170853,2.6289413 7.7677574,3.6097171 H 3.3793049 C 2.61517,3.6097171 2,4.224887 2,4.989022 V 20.620695 C 2,21.38483 2.61517,22 3.3793049,22 H 17.172354 c 0.764135,0 1.379305,-0.61517 1.379305,-1.379305 V 4.989022 c 0,-0.764135 -0.61517,-1.3792899 -1.379305,-1.3793049 H 12.783901 C 12.334527,2.6290527 11.354551,2.0000792 10.275829,2.000079 Z m -0.0081,1.6096381 a 1.1494207,1.1494207 0 0 1 0.0081,0 1.1494207,1.1494207 0 0 1 1.148972,1.1489717 A 1.1494207,1.1494207 0 0 1 10.275829,5.9076605 1.1494207,1.1494207 0 0 1 9.1268574,4.7586888 1.1494207,1.1494207 0 0 1 10.267747,3.6097171 Z M 3.3793042,4.989022 H 6.5972333 V 7.7476318 H 13.954425 V 4.989022 h 3.217929 V 20.620695 H 3.3793049 Z" />
    <path
       style="fill:#98a2a9;fill-opacity:1;stroke:none;stroke-width:0.246945;stroke-linecap:butt;stroke-linejoin:round;stroke-miterlimit:4;stroke-dasharray:none;stroke-opacity:1"
       d="m 10.234073,2.000079 a 2.7586098,2.7586098 0 0 0 -2.7168534,2.7586098 2.7586098,2.7586098 0 0 0 2.7586094,2.7586098 2.7586098,2.7586098 0 0 0 2.75861,-2.7586098 2.7586098,2.7586098 0 0 0 -2.75861,-2.7586098 2.7586098,2.7586098 0 0 0 -0.04176,0 z m 0.03368,1.6096381 a 1.1494208,1.1494208 0 0 1 0.0081,0 1.1494208,1.1494208 0 0 1 1.14897,1.1489717 A 1.1494208,1.1494208 0 0 1 10.275829,5.9076605 1.1494208,1.1494208 0 0 1 9.1268574,4.7586888 1.1494208,1.1494208 0 0 1 10.267747,3.6097171 Z" />
    <path
       style="fill:#98a2a9;fill-opacity:1;stroke:none;stroke-width:0.246944;stroke-linecap:butt;stroke-linejoin:round;stroke-miterlimit:4;stroke-dasharray:none;stroke-opacity:1"
       d="M 6.5972332,4.989022 H 8.436531 l 1.882401,1.5301663 1.796195,-1.5301663 h 1.839298 V 7.7476318 H 6.5972332 Z" />
    <path
       style="fill:#ffffff;fill-opacity:1;stroke:none;stroke-width:0.352999;stroke-miterlimit:4;stroke-dasharray:none"
       d="m 30.060876,7.8502975 h 5.218856 c 0.462963,0 1.304713,0 1.304713,-0.9680135 0,-0.9259259 -0.84175,-0.9259259 -1.304713,-0.9259259 H 30.060876 V 3.3469305 c 0,-0.5892256 0,-1.3468014 -1.010101,-1.3468014 -1.052188,0 -1.052188,0.7575758 -1.052188,1.3468014 v 2.6094276 h -2.777778 c -0.420875,0 -1.304714,0 -1.304714,0.9259259 0,0.9680135 0.841751,0.9680135 1.304714,0.9680135 h 2.777778 v 8.0808085 c 0,3.030303 2.020202,4.124579 4.377104,4.124579 1.72559,0 4.924243,-0.883839 4.924243,-4.166667 0,-0.631313 0,-1.346801 -1.094276,-1.346801 -1.010101,0 -1.010101,0.715488 -1.010101,1.388889 -0.04209,1.936027 -1.851852,2.230639 -2.609428,2.230639 -2.525253,0 -2.525253,-1.599326 -2.525253,-2.356902 z m 0,0" />
    <path
       style="fill:#ffffff;fill-opacity:1;stroke:none;stroke-width:0.352999;stroke-miterlimit:4;stroke-dasharray:none"
       d="m 53.071718,13.658378 c 0.673401,0 1.304714,0 1.304714,-1.178451 0,-3.7878787 -2.146464,-6.8181817 -6.144781,-6.8181817 -3.745791,0 -6.734007,3.2407407 -6.734007,7.1548817 0,4.082492 3.240741,7.239058 7.19697,7.239058 4.166667,0 5.681818,-2.861953 5.681818,-3.703704 0,-0.210438 -0.08418,-0.925926 -1.052188,-0.925926 -0.631313,0 -0.841751,0.252525 -1.010101,0.715488 -0.799664,1.851852 -2.904041,2.020202 -3.535354,2.020202 -2.651515,0 -4.755892,-2.020202 -5.13468,-4.503367 z m -9.385521,-1.767676 c 0.420875,-2.7356907 2.525252,-4.3350173 4.545454,-4.3350173 3.198653,0 3.872054,2.7356903 3.998317,4.3350173 z m 0,0" />
    <path
       style="fill:#ffffff;fill-opacity:1;stroke:none;stroke-width:0.352999;stroke-miterlimit:4;stroke-dasharray:none"
       d="m 65.35021,12.690365 3.703704,-4.8400675 h 1.094276 c 0.462963,0 1.304714,0 1.304714,-0.9680135 0,-0.9259259 -0.841751,-0.9259259 -1.304714,-0.9259259 h -3.535354 c -0.462963,0 -1.304713,0 -1.304713,0.9259259 0,0.9680135 0.757575,0.9680135 1.557239,0.9680135 L 64.424284,11.133126 61.941119,7.8502975 c 0.757576,0 1.515152,0 1.515152,-0.9680135 0,-0.9259259 -0.841751,-0.9259259 -1.262627,-0.9259259 h -3.577441 c -0.462963,0 -1.304713,0 -1.304713,0.9259259 0,0.9680135 0.84175,0.9680135 1.304713,0.9680135 h 1.136364 l 3.829966,4.8400675 -4.040404,5.30303 h -1.094276 c -0.462963,0 -1.304714,0 -1.304714,0.925926 0,0.925926 0.841751,0.925926 1.304714,0.925926 h 3.535354 c 0.462963,0 1.304714,0 1.304714,-0.925926 0,-0.925926 -0.757576,-0.925926 -1.599327,-0.925926 l 2.73569,-4.082491 2.904041,4.082491 c -0.799664,0 -1.557239,0 -1.557239,0.925926 0,0.925926 0.84175,0.925926 1.262626,0.925926 h 3.577441 c 0.462963,0 1.304714,0 1.304714,-0.925926 0,-0.925926 -0.841751,-0.925926 -1.304714,-0.925926 h -1.136364 z m 0,0" />
    <path
       style="fill:#ffffff;fill-opacity:1;stroke:none;stroke-width:0.352999;stroke-miterlimit:4;stroke-dasharray:none"
       d="m 79.354318,27.000129 c 0.420875,0 1.262626,0 1.262626,-0.925926 0,-0.968013 -0.841751,-0.968013 -1.262626,-0.968013 h -1.346801 v -6.86027 c 0.799663,0.841751 1.978114,1.809765 3.787878,1.809765 3.409091,0 6.397307,-3.072391 6.397307,-7.154882 0,-3.9562294 -2.693603,-7.1127951 -6.060606,-7.1127951 -2.356903,0 -3.829967,1.3888889 -4.124579,1.7255892 0,-1.0521885 0,-1.557239 -1.262627,-1.557239 h -2.146464 c -0.462963,0 -1.304714,0 -1.304714,0.9259259 0,0.9680135 0.841751,0.9680135 1.304714,0.9680135 H 75.90314 V 25.10619 h -1.304714 c -0.462963,0 -1.304714,0 -1.304714,0.968013 0,0.925926 0.841751,0.925926 1.304714,0.925926 z M 78.007517,11.301476 c 0,-1.8518519 1.809764,-3.6616162 3.914141,-3.6616162 2.314815,0 4.166667,2.3569023 4.166667,5.2609432 0,3.07239 -2.188552,5.260942 -4.46128,5.260942 -2.441077,0 -3.619528,-2.73569 -3.619528,-4.335017 z m 0,0" />
    <path
       style="fill:#ffffff;fill-opacity:1;stroke:none;stroke-width:0.352999;stroke-miterlimit:4;stroke-dasharray:none"
       d="m 102.74392,10.71225 c 0,-2.4410771 -1.85185,-5.0505047 -6.186869,-5.0505047 -1.346801,0 -4.503367,0 -4.503367,2.2306397 0,0.8838384 0.631313,1.3468014 1.346802,1.3468014 0.16835,0 1.262626,-0.042088 1.262626,-1.3888889 0,-0.1683502 0.04209,-0.2104377 0.715488,-0.2525253 0.378788,-0.042088 0.799663,-0.042088 1.220539,-0.042088 0.715488,0 1.809764,0 2.861953,0.7996633 1.178448,0.8838384 1.178448,1.8097645 1.178448,2.7356905 -1.893937,0.04209 -3.787876,0.210438 -5.765991,0.841751 -1.599326,0.547138 -3.661616,1.683502 -3.661616,3.872054 0,2.314815 2.020202,4.250842 5.008418,4.250842 1.052188,0 3.030303,-0.16835 4.713809,-1.346802 0.63131,1.052188 2.23064,1.136364 3.45117,1.136364 0.79967,0 1.55724,0 1.55724,-0.925926 0,-0.925927 -0.84175,-0.925927 -1.26262,-0.925927 -0.84175,0 -1.51515,-0.08417 -1.93603,-0.252524 z m -2.10438,4.882155 c 0,0.757576 0,1.430977 -1.304711,2.020202 -1.136364,0.547138 -2.651515,0.547138 -2.73569,0.547138 -1.936027,0 -3.282829,-1.010101 -3.282829,-2.356902 0,-1.893939 3.409091,-2.988216 7.32323,-2.988216 z m 0,0" />
    <path
       style="fill:#ffffff;fill-opacity:1;stroke:none;stroke-width:0.352999;stroke-miterlimit:4;stroke-dasharray:none"
       d="m 119.48374,6.882284 c 0,-0.5050505 0,-1.2205387 -0.88384,-1.2205387 -0.75757,0 -0.96801,0.7575757 -0.96801,0.7996633 -1.30471,-0.7996633 -2.77778,-0.7996633 -3.40909,-0.7996633 -5.26094,0 -5.97643,2.6936027 -5.97643,3.7878788 0,1.3047139 0.79966,2.2306399 1.89394,2.8198649 1.0101,0.589226 1.93602,0.757576 4.58754,1.178452 1.26263,0.210437 3.82997,0.631313 3.82997,2.398989 0,1.178452 -1.09428,2.314815 -4.0825,2.314815 -2.06229,0 -3.40909,-0.799663 -4.08249,-3.114478 -0.16835,-0.462963 -0.25252,-0.799663 -1.05219,-0.799663 -1.09427,0 -1.09427,0.589225 -1.09427,1.262626 v 3.324916 c 0,0.50505 0,1.220539 0.92592,1.220539 0.37879,0 0.6734,0 1.13637,-1.346802 1.47306,1.220539 3.15656,1.346802 4.16666,1.346802 5.93435,0 5.93435,-3.872054 5.93435,-4.208755 0,-3.324915 -3.95623,-3.998316 -5.51347,-4.250841 -2.81987,-0.462963 -4.75589,-0.799664 -4.75589,-2.1464649 0,-0.8838384 0.96801,-1.8939394 3.99831,-1.8939394 3.07239,0 3.19866,1.4309764 3.28283,2.2727273 0.0421,0.631313 0.63131,0.757576 1.0101,0.757576 1.05219,0 1.05219,-0.5892259 1.05219,-1.220539 z m 0,0" />
    <path
       style="fill:#ffffff;fill-opacity:1;stroke:none;stroke-width:0.352999;stroke-miterlimit:4;stroke-dasharray:none"
       d="m 129.48951,7.8502975 h 5.21886 c 0.46296,0 1.30471,0 1.30471,-0.9680135 0,-0.9259259 -0.84175,-0.9259259 -1.30471,-0.9259259 h -5.21886 V 3.3469305 c 0,-0.5892256 0,-1.3468014 -1.0101,-1.3468014 -1.05219,0 -1.05219,0.7575758 -1.05219,1.3468014 v 2.6094276 h -2.77777 c -0.42088,0 -1.30472,0 -1.30472,0.9259259 0,0.9680135 0.84175,0.9680135 1.30472,0.9680135 h 2.77777 v 8.0808085 c 0,3.030303 2.02021,4.124579 4.37711,4.124579 1.72559,0 4.92424,-0.883839 4.92424,-4.166667 0,-0.631313 0,-1.346801 -1.09427,-1.346801 -1.01011,0 -1.01011,0.715488 -1.01011,1.388889 -0.0421,1.936027 -1.85185,2.230639 -2.60942,2.230639 -2.52526,0 -2.52526,-1.599326 -2.52526,-2.356902 z m 0,0" />
    <path
       style="fill:#ffffff;fill-opacity:1;stroke:none;stroke-width:0.352999;stroke-miterlimit:4;stroke-dasharray:none"
       d="m 152.50035,13.658378 c 0.6734,0 1.30471,0 1.30471,-1.178451 0,-3.7878787 -2.14646,-6.8181817 -6.14478,-6.8181817 -3.74579,0 -6.73401,3.2407407 -6.73401,7.1548817 0,4.082492 3.24075,7.239058 7.19697,7.239058 4.16667,0 5.68182,-2.861953 5.68182,-3.703704 0,-0.210438 -0.0842,-0.925926 -1.05219,-0.925926 -0.63131,0 -0.84175,0.252525 -1.0101,0.715488 -0.79966,1.851852 -2.90404,2.020202 -3.53535,2.020202 -2.65152,0 -4.75589,-2.020202 -5.13468,-4.503367 z m -9.38552,-1.767676 c 0.42087,-2.7356907 2.52525,-4.3350173 4.54545,-4.3350173 3.19865,0 3.87205,2.7356903 3.99832,4.3350173 z m 0,0" />
  </g>
</svg>
