<svg xmlns="http://www.w3.org/2000/svg" width="24pt" height="24pt" viewBox="0 0 24 24"><path d="M 12.003698,0.05266027 A 11.991508,11.991508 0 0 0 8.2126443,23.42469 c 0.596263,0.110419 0.817101,-0.257644 0.817101,-0.58154 0,-0.323896 0,-1.037939 0,-2.039072 -3.334655,0.736127 -4.041337,-1.604756 -4.041337,-1.604756 a 3.1727071,3.1727071 0 0 0 -1.332389,-1.751983 c -1.089468,-0.736127 0.08097,-0.736127 0.08097,-0.736127 a 2.5175541,2.5175541 0 0 1 1.840318,1.236694 2.5543605,2.5543605 0 0 0 3.489242,0.993771 2.5617218,2.5617218 0 0 1 0.736126,-1.604757 c -2.664776,-0.301812 -5.462058,-1.332389 -5.462058,-5.925822 a 4.6375997,4.6375997 0 0 1 1.236693,-3.2168742 4.3137039,4.3137039 0 0 1 0.11778,-3.1727069 c 0,0 1.008494,-0.323896 3.297849,1.2293317 a 11.3658,11.3658 0 0 1 6.0067957,0 c 2.289354,-1.5532277 3.297848,-1.2293317 3.297848,-1.2293317 a 4.3063426,4.3063426 0 0 1 0.117781,3.1727069 4.6302385,4.6302385 0 0 1 1.229332,3.2168742 c 0,4.608155 -2.804644,5.616649 -5.476785,5.889016 a 2.8635338,2.8635338 0 0 1 0.817101,2.208381 c 0,1.604757 0,2.892979 0,3.290487 0,0.397509 0.213477,0.69196 0.824462,0.574179 A 11.991508,11.991508 0 0 0 12.011059,0.00849227 Z" fill="#231e1b" /></svg>